<?xml version="1.0" encoding="utf-8"?>
<!-- Generator: Adobe Illustrator 16.0.0, SVG Export Plug-In . SVG Version: 6.00 Build 0)  -->
<!DOCTYPE svg PUBLIC "-//W3C//DTD SVG 1.1//EN" "http://www.w3.org/Graphics/SVG/1.1/DTD/svg11.dtd">
<svg version="1.1" id="Calque_1" xmlns="http://www.w3.org/2000/svg" xmlns:xlink="http://www.w3.org/1999/xlink" x="0px" y="0px"
	 width="16px" height="16px" viewBox="0 0 16 16" enable-background="new 0 0 16 16" xml:space="preserve">
<path fill="#388A34" d="M12.75,8h1.5c0-3.313-2.687-6-6-6C6.317,2,4.597,2.914,3.5,4.334V2.5H2v4l0.75,0.75h3.5v-1.5H4.352
	C5.13,4.405,6.584,3.5,8.25,3.5C10.735,3.5,12.75,5.515,12.75,8z"/>
<path fill="#388A34" d="M3.469,8.031h-1.5c0,3.313,2.687,6,6,6c1.934,0,3.652-0.914,4.75-2.334v1.834h1.5v-4l-0.75-0.75h-3.5v1.5
	h1.898c-0.778,1.346-2.232,2.25-3.898,2.25C5.483,12.531,3.469,10.517,3.469,8.031z"/>
</svg>
